<svg xmlns="http://www.w3.org/2000/svg" viewBox="0 0 64 64"><defs><linearGradient id="g" x1="0" y1="0" x2="1" y2="1"><stop offset="0" stop-color="#2f6b5a"/><stop offset="1" stop-color="#173a31"/></linearGradient></defs><rect x="2" y="2" width="60" height="60" rx="16" fill="url(#g)"/><rect x="11" y="31" width="7" height="21" rx="2" fill="#f6f1e4"/><rect x="23" y="25" width="7" height="27" rx="2" fill="#f6f1e4"/><rect x="11" y="37" width="19" height="5" rx="1.5" fill="#f6f1e4"/><rect x="39" y="22" width="7" height="30" rx="2" fill="#f2c46d"/><rect x="34" y="18" width="18" height="6" rx="2" fill="#f2c46d"/><circle cx="47" cy="12" r="5" fill="#f6f1e4"/><path d="M43.5 8.2c-.6-2.6 1.6-3.6 2.4-1.8.2-2.4 2.8-2.8 3.2-.4 1-1.8 3.2-.8 2.4 1.4z" fill="#e0533f"/><path d="M51.6 11l4 1.4-4 1.4z" fill="#f2a33a"/><circle cx="48.4" cy="11" r=".95" fill="#173a31"/><path d="M50.8 14.2c.8 2.2-.9 3-1.6 1.2z" fill="#e0533f"/><rect x="9" y="52" width="46" height="2.4" rx="1.2" fill="#f6f1e4" opacity=".55"/></svg>